# xmcd
#
# Track frame offsets: 
#        150
#        13288
#        29187
#        42021
#        54494
#        67103
#        79692
#        95192
#        107883
#        120822
#        133781
#        146773
#        159832
#        172841
#        185741
#        198764
#        211832
#        224922
#        234168
#        247284
#        262168
#        275330
#        288293
#        301870
#        315159
#
# Disc length: 4769 seconds
#
# Revision: 2
# Processed by: cddbd v1.5.2PL0 Copyright (c) Steve Scherf et al.
# Submitted via: ExactAudioCopy v1.2
#
DISCID=73129f19
DTITLE=Various Artist - 101 Greatest Jazz Disc2 Take THE 'a' Train
DYEAR=1900
DGENRE=Jazz
TTITLE0=Take The 'a' Train
TTITLE1=In The Mood
TTITLE2=Embraceable You
TTITLE3=Indian Summer
TTITLE4=(Get Your Kicks On)Route 66
TTITLE5=It Happened In Monterey
TTITLE6=Blue Moon
TTITLE7=What Difference A Day Made
TTITLE8=Jersey Bounce
TTITLE9=Too Marvelous For Words
TTITLE10=Angel Eyes
TTITLE11=Ain't Misbehavin'
TTITLE12=That Ole Devil Called Love
TTITLE13=Little Brown Jug
TTITLE14=I Got It Bad And That Ain't Good
TTITLE15=I'm In The Mood For Love
TTITLE16=It's Only A Paper Moon
TTITLE17=Ain't No Sunshine
TTITLE18=It's A Sin To Tell A Lie
TTITLE19=String Of Pearls
TTITLE20=Ko-Ko
TTITLE21=In The Still Of The Night
TTITLE22=A Kiss To Build A Dream On
TTITLE23=I Got The Sun In The Morning
TTITLE24=Moanin'
EXTD=
EXTT0=
EXTT1=
EXTT2=
EXTT3=
EXTT4=
EXTT5=
EXTT6=
EXTT7=
EXTT8=
EXTT9=
EXTT10=
EXTT11=
EXTT12=
EXTT13=
EXTT14=
EXTT15=
EXTT16=
EXTT17=
EXTT18=
EXTT19=
EXTT20=
EXTT21=
EXTT22=
EXTT23=
EXTT24=
PLAYORDER=
